<?xml version="1.0" standalone="no"?>
<!DOCTYPE svg PUBLIC "-//W3C//DTD SVG 20010904//EN"
 "http://www.w3.org/TR/2001/REC-SVG-20010904/DTD/svg10.dtd">
<svg version="1.0" xmlns="http://www.w3.org/2000/svg"
 width="512.000000pt" height="512.000000pt" viewBox="0 0 512.000000 512.000000"
 preserveAspectRatio="xMidYMid meet">
<metadata>
Created by potrace 1.14, written by Peter Selinger 2001-2017
</metadata>
<g transform="translate(0.000000,512.000000) scale(0.100000,-0.100000)"
fill="#000000" stroke="none">
<path d="M2454 4849 c-136 -271 -353 -564 -614 -830 -88 -90 -111 -119 -96
-119 12 0 90 7 174 16 85 9 156 14 159 11 2 -3 -106 -145 -242 -317 -136 -172
-244 -314 -242 -316 3 -3 53 11 113 30 59 19 109 34 111 32 2 -1 -71 -123
-162 -271 l-164 -269 70 -42 c39 -23 75 -46 81 -52 7 -7 -86 -146 -307 -458
-174 -246 -319 -453 -322 -460 -4 -11 30 -14 170 -16 l176 -3 -254 -410 c-191
-310 -249 -411 -237 -412 9 -2 150 14 312 36 162 21 298 35 302 32 4 -3 32
-75 63 -158 32 -84 60 -153 64 -153 3 0 152 56 331 124 179 68 325 124 326
123 0 -1 -23 -166 -52 -367 -30 -201 -54 -375 -54 -387 l0 -23 260 0 260 0 0
29 c0 16 -13 168 -30 338 -16 169 -30 308 -30 309 0 1 83 -33 184 -77 101 -43
188 -79 193 -79 4 0 30 54 57 120 27 66 50 120 51 120 2 0 99 -46 216 -101
118 -56 221 -102 229 -101 32 1 555 201 553 211 -5 18 -345 605 -362 623 -9 9
-40 20 -70 24 -63 8 -66 29 25 -199 56 -143 60 -157 41 -151 -12 4 -170 65
-350 135 -181 71 -330 129 -332 129 -3 0 -6 -79 -7 -175 l-3 -176 -414 251
-415 251 -192 -192 c-107 -106 -195 -191 -197 -189 -3 3 5 113 17 245 l21 239
50 -2 c28 -1 67 -5 89 -8 37 -6 41 -4 111 66 68 67 74 71 96 60 13 -7 160 -96
327 -197 166 -101 309 -186 317 -190 13 -4 15 17 15 142 0 114 3 146 13 142
176 -71 532 -207 537 -205 4 2 -17 64 -46 138 -30 74 -54 136 -54 137 0 0 8
-1 18 -3 87 -19 575 -105 583 -102 10 3 -318 378 -331 378 -5 0 -72 -38 -150
-85 -78 -47 -144 -85 -148 -85 -4 0 -48 47 -97 105 -57 67 -95 103 -105 101
-30 -9 -171 -29 -174 -25 -5 5 -117 651 -114 654 2 1 120 -132 262 -296 142
-165 263 -299 267 -299 14 0 423 246 425 255 2 6 -31 37 -73 70 -112 89 -288
260 -356 345 l-60 75 6 -75 c4 -41 9 -122 12 -180 3 -58 8 -120 11 -138 3 -21
1 -32 -4 -28 -6 3 -126 159 -268 346 -141 187 -258 339 -259 337 -1 -1 -80
-166 -175 -367 -95 -201 -176 -368 -179 -372 -4 -4 -22 119 -40 275 -18 155
-34 289 -37 298 -4 14 7 18 68 24 89 9 102 15 119 57 7 18 57 125 111 237 l98
203 68 -88 c38 -49 115 -150 171 -224 l103 -135 -7 128 -7 127 108 -39 c60
-21 139 -50 177 -65 37 -14 67 -22 67 -18 0 4 -58 83 -128 177 l-127 169 -275
142 c-151 79 -277 141 -281 139 -3 -2 -46 -94 -94 -205 -49 -110 -92 -197 -96
-193 -9 11 -141 410 -138 420 1 5 38 22 82 38 l80 30 36 83 c19 45 39 82 44
82 5 0 134 -65 288 -145 153 -80 285 -145 292 -145 17 0 140 41 150 50 4 4
-26 35 -68 69 -292 241 -520 549 -641 863 -20 51 -38 95 -39 97 -2 1 -20 -30
-41 -70z"/>
</g>
</svg>
